<svg xmlns="http://www.w3.org/2000/svg" viewBox="0 0 2048 2048"><g transform="matrix(8.847875 0 0 -8.847875 -7613.081782 8206.986714)"><path d="M964.961 698.533c3.97 2.201 6.629 4.985 7.973 8.35s2.016 7.072 2.016 11.133v147.448h-5.783c-12.735 0-23.394-2.378-31.981-7.132s-14.922-10.845-19.013-18.266-6.134-15.194-6.134-23.31c0-8.583 1.783-15.86 5.346-21.831s8.38-8.247 14.338-8.247c3.268 0 5.907.93 7.777 2.556s2.68 2.82 2.68 5.256c0 2.087-.613 4.088-1.84 6.001s-3.242 3.044-6.045 3.393c0 2.201 1.226 4.376 3.68 6.522s5.256 3.219 8.411 3.219c4.321 0 7.711-1.131 10.163-3.392s3.68-5.075 3.68-8.437c0-2.783-.905-5.51-2.715-8.176s-4.53-4.844-8.149-6.524-8.003-2.522-13.143-2.522c-12.732 0-23.509 1.884-32.332 5.654s-15.448 8.755-19.888 14.96-6.66 12.843-6.66 19.918c0 7.42 2.339 14.495 7.009 21.222s11.509 12.178 20.504 16.353 19.687 6.262 32.068 6.262h83.938c7.125 0 13.201 1.158 18.225 3.479s8.79 5.276 11.303 8.872 3.768 7.306 3.768 11.133c0 3.014-.907 5.246-2.716 6.698s-4.003 2.174-6.572 2.174c-2.103 0-4.003-.465-5.695-1.392s-2.659-2.087-2.892-3.479c-2.688.81-4.791 2.348-6.308 4.61s-2.278 4.898-2.278 7.915c0 4.871 1.809 9.19 5.432 12.96s8.644 5.653 15.071 5.653c5.49 0 10.278-1.247 14.369-3.739s7.185-5.801 9.288-9.916 3.154-8.554 3.154-13.308c0-5.8-2.075-11.394-6.221-16.787s-10.224-9.801-18.225-13.22-17.378-5.132-28.126-5.132h-5.432V718.016c0-4.175.672-7.915 2.015-11.22s4.001-6.062 7.974-8.263v-2.435h-62.034z" fill="#d7b66b"/></g></svg>