<svg xmlns="http://www.w3.org/2000/svg" viewBox="0 0 2048 740">
<style>
  @keyframes logo-left {
    0% {
      transform: translateX(10em);
      opacity: 0;
    }
    100% {
      transform: translateX(0em);
      opacity: 1;
    }
  }
  #logo-tabanko    { animation: logo-left 1s 0s   both; }
  #logo-825        { animation: logo-left 1s .25s both; }
  #logo-experience { animation: logo-left 1s .5s  both; }
  #logo-atun       { animation: logo-left 1s .75s both; }
</style>
<g fill="#d7b66b">
<path id="logo-atun" d="M1391.421 652.903c-.206-.105-.442-.128-.663-.06-16.402 4.913-34.391 7.63-53.261 7.63-11.41 0-22.498-.995-33.108-2.866-1.015-.18-1.482 1.202-.572 1.688 38.854 20.835 82.124 29.315 84.424 29.755l63.6 12.128a.91.91 0 0 0 .823-1.515l-28.766-30.052c-.069-.074-.151-.134-.24-.18zm-578.144-13.568c-.04-.326-.3-.585-.629-.597-4.799-.163-28.195 1.219-37.73 1.219-21.961 0-42.728-3.677-61.191-10.221-.554-.197-1.077.352-.843.891 6.277 14.436 14.513 29.769 24.814 41.885 28.006 32.954 58.671 39.299 62.076 39.914l38.787 6.89a.68.68 0 0 0 .734-.935l-15.985-36.096c-.071-.157-6.63-15.255-10.031-42.95m-12.304-377.03c171.943 0 333.519 2.98 465.939 25.04 1.177.197 1.539-1.515.389-1.835-80.85-22.529-56.92-35.436-58.698-41.218 5.253-16.145 51.96-45.293 99.882-67.4l-33.571-3.072c-1.411-.129-1.42-2.186-.011-2.329l60.086-6.068 85.837-35.28c.862-.354.603-1.639-.329-1.631l-97.6.811c-1.903.015-47.335.64-107.998 22.715-21.938 7.982-149.537 79.303-175.488 79.003-.143-.002-54.431-15.573-75.132-30.126-63.012-44.299-87.866-119.183-92.383-133.027l-17.859 13.001c-1.214.883-2.731-.612-1.865-1.84l16.364-23.144c-.703-2.994-8.748-55.594-8.748-55.594h0c-18.839 26.326-36.296 53.614-52.301 81.753l-66.953 117.72a24.68 24.68 0 0 1-20.109 12.453c-36.496 1.975-111.247 8.504-196.179 30.029-34.425 8.725-78.541 25.009-124.822 45.79-.508.228-.271.991.274.877 120.443-25.169 255.604-26.626 401.275-26.626m1184.613-141.07c-106.892 15.91-162.436 78.949-202.918 116.906-38.32 35.933-53.44 43.622-64.634 48.172-.382.155-.183.72.217.617 82.827-21.06 122.72 34.439 133.648 52.307.285.466.537.457.611-.088 14.401-107.186 141.607-191.178 142.886-192.008l52.329-34.002c.525-.354.214-1.175-.414-1.092zm-95.713 577.607c-.672-.531-38.36-30.78-71.299-81.82a2.79 2.79 0 0 0-4.073-.683c-11.754 9.214-25.187 17.338-40.031 23.884a190 190 0 0 1-30.959 10.593c-2.129.528-2.811 3.186-1.242 4.719 55.307 53.98 130.845 70.385 134.602 71.173l61.92 12.964c.969.202 1.549-1.04.772-1.652z"/>
<path id="logo-825" d="M1407.496 575.19c-11.179 0-20.241-24.309-20.241-54.297s9.062-54.295 20.241-54.295 20.243 24.309 20.243 54.295-9.064 54.297-20.243 54.297m-20.241-169.613c0-29.988 9.062-54.297 20.241-54.297s20.243 24.309 20.243 54.297-9.064 54.295-20.243 54.295-20.241-24.309-20.241-54.295m39.12 57.658c30.223-6.94 52.441-30.118 52.441-57.66 0-33.022-31.931-59.792-71.321-59.792s-71.321 26.771-71.321 59.792c0 27.541 22.218 50.72 52.443 57.66-30.225 6.94-52.443 30.118-52.443 57.658 0 33.023 31.932 59.794 71.321 59.794s71.321-26.771 71.321-59.794c0-27.54-22.218-50.718-52.441-57.658m91.319 108.587c-11.938 0-21.433 1.266-28.489 3.799 0-9.705 1.989-19.256 5.97-28.651s8.907-18.149 14.787-26.277 13.975-18.519 24.284-31.183c11.03-13.504 19.895-24.955 26.589-34.348s12.345-19.732 16.958-31.025a92.45 92.45 0 0 0 6.919-35.3c0-10.764-1.54-19.31-4.612-25.643s-7.691-9.496-13.838-9.496c-7.962 0-14.156 4.223-18.586 12.662s-6.647 18.575-6.647 30.392c0 9.288 1.355 18.044 4.068 26.275s6.785 14.776 12.21 19.629c-2.534 3.166-5.927 5.54-10.173 7.123s-8.913 2.374-13.975 2.374c-11.937 0-21.841-3.957-29.709-11.871s-11.804-18.624-11.804-32.134c0-14.136 3.753-25.801 11.261-34.982s16.776-15.829 27.811-19.944 21.978-6.174 32.831-6.174c16.458 0 31.018 2.374 43.682 7.123s22.52 11.713 29.575 20.895 10.582 20.21 10.582 33.082c0 15.196-4.3 28.76-12.89 40.681s-18.678 22.003-30.252 30.234-26.229 17.413-43.955 27.543c-13.93 7.81-24.194 14.087-30.794 18.836s-10.541 9.551-11.804 14.405c6.69-4.854 15.013-8.074 24.963-9.657s22.607-2.582 37.985-3.006c12.481-.422 22.336-1 29.574-1.742s13.927-2.423 20.078-5.065 10.759-6.594 13.838-11.873l2.714 2.217c-1.086 2.959-2.171 7.282-3.257 12.979-2.535 10.977-5.154 20.261-7.868 27.86s-7.054 14.355-13.024 20.261-13.747 8.864-23.333 8.864c-3.799 0-6.694-.212-8.682-.632-31.655-5.486-55.986-8.231-72.987-8.231m167.739 3.166c-9.225-3.799-16.279-8.968-21.164-15.513s-7.325-13.716-7.325-21.527c0-13.504 3.255-23.372 9.768-29.6s14.287-9.339 23.333-9.339c5.245 0 9.993.9 14.244 2.691s7.008 4.066 8.276 6.806c-4.706 2.745-8.457 7.233-11.259 13.455a46.88 46.88 0 0 0-4.206 19.47c0 10.764 1.942 18.946 5.833 24.535s8.725 8.39 14.516 8.39c5.245 0 10.354-2.108 15.33-6.331s9.09-10.339 12.345-18.362 4.883-17.412 4.883-28.177c0-10.13-2.488-19.627-7.46-28.492a58.79 58.79 0 0 0-20.35-21.369c-8.593-5.382-18.043-8.073-28.352-8.073-10.133 0-19.989 2.642-29.575 7.914l16.822-116.184h98.491c4.34-.634 7.414-3.269 9.225-7.914h5.154l-5.154 66.482h-108.259l-6.511 44.955c7.597-6.965 17.364-12.61 29.303-16.938s24.055-6.49 36.357-6.49c20.438 0 36.853 6.123 49.246 18.362s18.586 29.125 18.586 50.652c0 13.93-3.799 26.701-11.396 38.307s-18.178 20.844-31.745 27.7-29.125 10.29-46.669 10.29c-12.302 0-23.061-1.899-32.286-5.699"/>
<path id="logo-experience" d="M454.348 571.434c-1.48 2.983-3.583 4.677-6.351 5.106-.151.043-.602 0-1.351-.151v-33.02c3.132.537 5.577 2.511 7.316 5.9 1.737 3.412 2.617 7.317 2.617 11.694 0 3.991-.751 7.488-2.231 10.47m16.842-21.22c-1.392-2.963-3.612-5.459-6.393-7.188-2.877-1.823-6.351-2.725-10.45-2.725l-7.702 2.425v-2.425h-21.243v1.009c1.245.192 2.146.6 2.682 1.2.558.623.923 1.674 1.115 3.156s.28 3.883.28 7.23v28.58c0 1.674-.28 3.197-.815 4.569-.557 1.395-1.631 2.532-3.262 3.432v1.009H450.7v-1.009c-1.609-.9-2.703-2.037-3.239-3.389-.558-1.351-.815-2.897-.815-4.613v-4.226c2.272 1.951 4.891 2.939 7.851 2.939 3.905 0 7.274-.966 10.107-2.897a18.63 18.63 0 0 0 6.479-7.616 23.01 23.01 0 0 0 2.211-9.934c0-3.368-.708-6.565-2.103-9.527m23.194 5.45c0-4.14.686-7.66 2.06-10.534 1.394-2.876 3.303-4.313 5.728-4.313.988 0 1.737.535 2.252 1.631.494 1.094.751 2.509.751 4.226 0 3.948-.837 7.208-2.466 9.784-1.652 2.576-3.799 3.862-6.48 3.862-.322 0-.837-.043-1.502-.151-.237-1.523-.343-3.025-.343-4.505m22.013 10.448c-.386 2.662-1.288 4.7-2.725 6.073-1.417 1.374-3.197 2.082-5.279 2.082-1.823 0-3.626-.494-5.428-1.48-1.823-.966-3.432-2.426-4.871-4.356s-2.445-4.228-3.068-6.888c2.576.602 4.891.923 6.994.923 4.377 0 8.047-1.031 11.007-3.111s4.442-4.936 4.442-8.605c0-3.862-1.739-6.673-5.214-8.431-3.497-1.782-7.616-2.66-12.381-2.66-4.913 0-9.033.986-12.401 2.982-3.346 1.974-5.836 4.528-7.467 7.682-1.609 3.132-2.423 6.457-2.423 9.933 0 4.528 1.092 8.282 3.282 11.244 2.188 2.982 4.999 5.171 8.433 6.543a29.05 29.05 0 0 0 10.877 2.082c3.089 0 5.943-.558 8.56-1.695 2.617-1.115 4.742-2.725 6.373-4.849 1.609-2.123 2.511-4.613 2.703-7.467zm43.17-24.481c-1.159-1.309-2.811-1.974-4.999-1.974-2.339 0-4.679.966-7.017 2.897s-4.226 4.162-5.642 6.694v-8.947h-21.221v1.008c1.223.192 2.125.6 2.662 1.202.557.622.922 1.672 1.115 3.154s.278 3.883.278 7.23v17.209c0 1.674-.257 3.197-.815 4.569-.537 1.395-1.631 2.532-3.24 3.434v1.008h25.297v-1.008c-1.631-.902-2.703-2.039-3.26-3.391-.537-1.351-.815-2.896-.815-4.613v-17.636a35.66 35.66 0 0 1 3.239-4.763c1.223-1.502 2.276-2.576 3.197-3.262-.192.622-.3 1.159-.3 1.588 0 2.039.665 3.648 2.017 4.785 1.331 1.137 2.897 1.715 4.699 1.715 1.78 0 3.305-.557 4.591-1.651s1.931-2.597 1.931-4.506c0-1.845-.578-3.432-1.715-4.742m21.927-17.013a6.54 6.54 0 0 0-4.848-2.039c-1.911 0-3.542.686-4.893 2.039-1.372 1.351-2.039 2.96-2.039 4.828a6.59 6.59 0 0 0 2.039 4.891c1.351 1.352 2.982 2.039 4.893 2.039a6.54 6.54 0 0 0 4.848-2.039c1.331-1.351 2.017-2.982 2.017-4.891 0-1.868-.686-3.477-2.017-4.828m4.677 50.1c-.535-1.352-.814-2.897-.814-4.613v-29.803h-21.221v1.009c1.674.278 2.768 1.029 3.283 2.209.515 1.202.794 3.132.794 5.793v20.792c0 1.672-.278 3.196-.837 4.569-.537 1.394-1.631 2.532-3.24 3.432v1.009h25.297v-1.009c-1.609-.9-2.703-2.039-3.262-3.389m22.915-19.053c0-4.14.686-7.66 2.08-10.534 1.374-2.876 3.283-4.313 5.708-4.313 1.008 0 1.759.535 2.252 1.631.515 1.094.751 2.509.751 4.226 0 3.948-.814 7.208-2.466 9.784-1.631 2.576-3.799 3.862-6.459 3.862-.343 0-.837-.043-1.502-.151-.237-1.523-.365-3.025-.365-4.505m22.013 10.448c-.386 2.662-1.288 4.7-2.703 6.073-1.439 1.374-3.197 2.082-5.3 2.082-1.802 0-3.626-.494-5.428-1.48-1.823-.966-3.432-2.426-4.871-4.356-1.415-1.931-2.445-4.228-3.068-6.888 2.576.602 4.914.923 7.016.923 4.377 0 8.047-1.031 11.007-3.111 2.94-2.082 4.42-4.936 4.42-8.605 0-3.862-1.739-6.673-5.214-8.431-3.476-1.782-7.594-2.66-12.358-2.66-4.914 0-9.056.986-12.402 2.982-3.368 1.974-5.857 4.528-7.467 7.682-1.631 3.132-2.445 6.457-2.445 9.933 0 4.528 1.092 8.282 3.303 11.244 2.129 2.94 5.055 5.21 8.431 6.543 3.434 1.374 7.039 2.082 10.857 2.082 3.089 0 5.963-.558 8.582-1.695 2.619-1.115 4.742-2.725 6.351-4.849 1.631-2.123 2.532-4.613 2.725-7.467zm53.275 8.605c-.537-1.352-.815-2.897-.815-4.613v-18.581c0-2.425-.622-4.528-1.888-6.33-1.266-1.782-2.939-3.132-4.999-4.056-2.082-.945-4.336-1.394-6.76-1.394-2.488 0-4.891.514-7.251 1.566-2.354 1.046-4.427 2.634-6.05 4.634v-5.643h-21.221v1.009c1.245.192 2.125.6 2.682 1.2.537.623.923 1.674 1.117 3.156.171 1.48.278 3.883.278 7.23v17.209c0 1.672-.278 3.196-.815 4.569-.558 1.394-1.652 2.532-3.262 3.432v1.009h25.297v-1.009c-1.609-.9-2.703-2.039-3.239-3.389-.558-1.352-.837-2.897-.837-4.613v-22.293c1.48-1.566 3.089-2.36 4.805-2.36 1.417 0 2.619.602 3.562 1.825.966 1.222 1.437 2.96 1.437 5.256v17.573c0 1.672-.278 3.196-.837 4.569-.535 1.394-1.629 2.532-3.239 3.432v1.009h25.297v-1.009c-1.609-.9-2.705-2.039-3.262-3.389m44.715-8.605c-.386 2.425-1.245 4.271-2.576 5.493-1.329 1.245-2.96 1.868-4.848 1.868-2.146 0-4.313-.752-6.523-2.254-2.188-1.502-3.989-3.605-5.428-6.286-1.415-2.703-2.145-5.771-2.145-9.268 0-4.099.643-7.467 1.931-10.15 1.288-2.66 3.154-3.991 5.579-3.991 1.008 0 1.759.537 2.296 1.609.515 1.074.772 2.425.772 4.034 0 1.523-.237 3.046-.708 4.549s-1.159 2.703-2.06 3.605a6.19 6.19 0 0 0 2.552 1.931c1.052.428 2.211.643 3.432.643 1.482 0 2.92-.3 4.336-.902 1.395-.6 2.554-1.459 3.432-2.574s1.308-2.425 1.308-3.883c0-3.82-1.759-6.588-5.32-8.304-3.54-1.717-7.659-2.576-12.314-2.576-4.914 0-9.056.988-12.402 2.983-3.369 1.972-5.859 4.526-7.467 7.68a21.26 21.26 0 0 0-2.446 9.934c0 4.528 1.094 8.282 3.283 11.244a19.23 19.23 0 0 0 8.453 6.543c3.434 1.374 7.039 2.082 10.857 2.082 3.089 0 5.965-.558 8.582-1.695 2.619-1.115 4.742-2.725 6.351-4.849 1.631-2.123 2.532-4.613 2.725-7.467zm21.306-10.448c0-4.14.686-7.66 2.06-10.534 1.394-2.876 3.303-4.313 5.728-4.313 1.009 0 1.739.535 2.254 1.631.492 1.094.749 2.509.749 4.226 0 3.948-.814 7.208-2.466 9.784s-3.799 3.862-6.48 3.862c-.322 0-.815-.043-1.502-.151-.237-1.523-.343-3.025-.343-4.505m22.013 10.448c-.386 2.662-1.288 4.7-2.725 6.073-1.415 1.374-3.197 2.082-5.279 2.082-1.823 0-3.626-.494-5.428-1.48-1.823-.966-3.432-2.426-4.869-4.356s-2.446-4.228-3.069-6.888c2.576.602 4.893.923 6.996.923 4.397 0 8.067-1.031 11.007-3.111 2.96-2.082 4.44-4.936 4.44-8.605 0-3.862-1.739-6.673-5.213-8.431-3.499-1.782-7.617-2.66-12.381-2.66-4.913 0-9.033.986-12.402 2.982-3.346 1.974-5.836 4.528-7.467 7.682-1.595 3.068-2.427 6.475-2.425 9.933 0 4.528 1.095 8.282 3.283 11.244 2.188 2.982 4.999 5.171 8.433 6.543 3.459 1.386 7.152 2.093 10.877 2.082 3.091 0 5.943-.558 8.56-1.695 2.617-1.115 4.742-2.725 6.373-4.849 1.609-2.123 2.511-4.613 2.703-7.467zm45.422-40.465c1.351-.859 2.766-1.288 4.248-1.288v-1.286c-1.631 0-3.54.149-5.75.406-2.232.258-4.399.751-6.545 1.46-3.283 1.008-5.965 2.489-8.045 4.462-2.062 1.974-3.112 4.571-3.112 7.768v3.132h-2.574v2.854h2.574v26.948c0 1.674-.278 3.197-.814 4.571-.558 1.394-1.632 2.531-3.262 3.432v1.008h25.317v-1.008c-1.631-.902-2.703-2.039-3.26-3.389-.537-1.352-.815-2.897-.815-4.614v-26.948h5.363v-2.854h-5.363v-9.634c0-2.488.665-4.162 2.039-5.02m78.056 47.502c-1.009 3.776-2.382 5.686-4.142 5.686-2.145 0-3.84-1.868-5.042-5.622-1.223-3.734-1.825-8.153-1.825-13.259 0-5.085.602-9.505 1.825-13.218 1.202-3.711 2.897-5.579 5.042-5.579 1.802 0 3.197 1.845 4.185 5.514.965 3.669 1.459 8.025 1.459 13.067 0 5.149-.494 9.613-1.502 13.41m16.113-25.167c-2.639-3.025-5.814-5.149-9.505-6.394s-7.294-1.845-10.836-1.845a34.25 34.25 0 0 0-11.071 1.845c-3.668 1.245-6.779 3.369-9.331 6.394s-3.82 7.037-3.82 12.058c0 4.656 1.288 8.519 3.862 11.544a22.48 22.48 0 0 0 9.44 6.608c3.712 1.374 7.359 2.06 10.921 2.06 3.391 0 6.974-.686 10.728-2.06 3.756-1.394 6.974-3.603 9.613-6.651s3.969-6.887 3.969-11.501c0-5.02-1.331-9.033-3.969-12.058m-48.663-6.351c-1.139-1.309-2.811-1.974-4.999-1.974-2.339 0-4.679.966-6.996 2.897-2.339 1.931-4.226 4.162-5.663 6.694v-8.947h-21.221v1.008c1.245.192 2.146.6 2.683 1.202.557.622.922 1.672 1.115 3.154s.278 3.883.278 7.23v17.209c0 1.674-.278 3.197-.815 4.569-.558 1.395-1.631 2.532-3.262 3.434v1.008h25.297v-1.008c-1.609-.902-2.703-2.039-3.24-3.391-.557-1.351-.835-2.896-.835-4.613v-17.636a35.68 35.68 0 0 1 3.262-4.763c1.222-1.502 2.272-2.576 3.174-3.262-.192.622-.278 1.159-.278 1.588 0 2.039.665 3.648 1.995 4.785s2.917 1.715 4.72 1.715c1.76 0 3.283-.557 4.569-1.651s1.931-2.597 1.931-4.506c0-1.845-.557-3.432-1.715-4.742m129.637 28.472v-18.581c0-2.468-.602-4.569-1.76-6.33-1.18-1.737-2.746-3.046-4.72-3.948-1.974-.923-4.14-1.372-6.459-1.372-2.639 0-5.234.578-7.831 1.715a19 19 0 0 0-6.757 5c-1.052-2.146-2.725-3.82-5-5.022-2.296-1.222-4.826-1.823-7.574-1.823-2.488 0-4.891.515-7.251 1.566a16.34 16.34 0 0 0-6.051 4.634v-5.642h-21.22v1.008c1.245.192 2.125.602 2.682 1.202.537.622.902 1.674 1.095 3.154s.3 3.883.3 7.231v17.207c0 1.674-.28 3.197-.837 4.571-.537 1.394-1.631 2.531-3.24 3.432v1.008h25.297v-1.008c-1.609-.902-2.703-2.039-3.262-3.391-.537-1.351-.815-2.896-.815-4.613v-22.229c1.523-1.566 3.089-2.36 4.72-2.36 1.439 0 2.64.623 3.605 1.868.986 1.243 1.459 2.96 1.459 5.149v17.572c0 1.674-.257 3.197-.814 4.571-.537 1.394-1.631 2.531-3.24 3.432v1.008h25.297v-1.008c-1.632-.902-2.705-2.039-3.262-3.391-.537-1.351-.815-2.896-.815-4.613v-18.581c0-1.331-.172-2.489-.494-3.497 1.523-1.674 3.111-2.511 4.785-2.511 1.437 0 2.617.623 3.562 1.868.965 1.243 1.439 2.96 1.439 5.149v17.572c0 1.674-.28 3.197-.815 4.571-.558 1.394-1.631 2.531-3.263 3.432v1.008h25.297v-1.008c-1.609-.902-2.703-2.039-3.239-3.391-.557-1.351-.815-2.896-.815-4.613m63.38-3.991c-.386 2.425-1.245 4.271-2.576 5.493-1.331 1.245-2.939 1.868-4.848 1.868-2.146 0-4.314-.752-6.502-2.254-2.209-1.502-4.012-3.605-5.449-6.286-1.417-2.703-2.125-5.771-2.125-9.268 0-4.099.645-7.467 1.931-10.15 1.266-2.66 3.133-3.991 5.557-3.991 1.009 0 1.76.537 2.297 1.609.514 1.074.792 2.425.792 4.034 0 1.523-.257 3.046-.729 4.549s-1.159 2.703-2.058 3.605c.665.857 1.523 1.502 2.574 1.931 1.031.428 2.189.643 3.411.643 1.482 0 2.919-.3 4.336-.902 1.394-.6 2.552-1.459 3.431-2.574s1.309-2.425 1.309-3.883c0-3.82-1.76-6.588-5.32-8.304-3.54-1.717-7.659-2.576-12.316-2.576-4.914 0-9.054.988-12.401 2.983-3.369 1.972-5.859 4.526-7.467 7.68a21.24 21.24 0 0 0-2.446 9.934c0 4.528 1.092 8.282 3.303 11.244 2.13 2.94 5.056 5.21 8.433 6.543a28.91 28.91 0 0 0 10.857 2.082c3.089 0 5.963-.558 8.582-1.695 2.617-1.115 4.742-2.725 6.351-4.849 1.629-2.123 2.531-4.613 2.723-7.467zm28.88 4.506c-.58 1.137-1.288 2.017-2.146 2.639s-1.76.923-2.725.923c-1.18 0-2.209-.494-3.089-1.502-.88-.988-1.331-2.382-1.331-4.142 0-2.617.837-4.934 2.511-6.973 1.652-2.017 3.926-3.154 6.78-3.391zm18.044 5.128c-.6-1.415-.88-3.305-.88-5.643v-12.851c0-3.819-1.072-7.037-3.217-9.656s-4.914-4.591-8.262-5.9c-3.368-1.308-6.843-1.952-10.47-1.952-4.248 0-7.831.837-10.793 2.532s-4.44 4.034-4.44 7.037c0 1.609.643 2.982 1.931 4.077s3.111 1.631 5.428 1.631c2.059 0 4.485-.515 7.296-1.566-1.803-1.609-2.705-3.669-2.705-6.137 0-1.909.386-3.411 1.202-4.483.815-1.052 1.76-1.588 2.854-1.588 1.115 0 2.039.535 2.832 1.588.794 1.072 1.18 2.596 1.18 4.548v8.925l-2.94-.065c-4.656 0-8.604.58-11.821 1.76-3.219 1.159-5.622 2.682-7.211 4.569-1.609 1.888-2.403 3.948-2.403 6.18 0 2.296.623 4.313 1.889 6.071a12.11 12.11 0 0 0 4.977 4.034c2.038.945 4.185 1.395 6.437 1.395 2.425 0 4.656-.558 6.673-1.717 2.017-1.137 3.562-2.854 4.612-5.128.343 1.76 1.137 3.154 2.403 4.162 1.245 1.031 2.919 1.545 4.956 1.545h13.647v-1.008c-1.523-.129-2.574-.923-3.176-2.36m30.06-.622c-2.297 0-4.119-1.48-5.471-4.399-1.352-2.94-2.038-6.373-2.038-10.342 0-4.377.835-8.045 2.531-11.007 1.695-2.939 4.163-4.334 7.403-4.14v26.24a9.2 9.2 0 0 0 .429 2.854c-1.052.515-1.996.794-2.854.794m20.469.622c-.601-1.415-.88-3.303-.88-5.642v-41.153h-21.241v.986c1.245.194 2.146.602 2.682 1.225.558.622.923 1.672 1.117 3.131.192 1.482.278 3.883.278 7.231v2.146c-3.477-2.382-6.867-3.583-10.15-3.583-3.562 0-6.651.943-9.225 2.789-2.576 1.866-4.506 4.291-5.816 7.294-1.314 3.019-1.986 6.278-1.974 9.57 0 3.432.666 6.651 1.974 9.613a17.08 17.08 0 0 0 5.9 7.23c2.619 1.823 5.794 2.746 9.505 2.746a25.18 25.18 0 0 0 3.283-.214l7.145-4.142c.516 1.288 1.372 2.297 2.533 3.025 1.18.752 2.639 1.117 4.399 1.117h13.645v-1.009c-1.523-.128-2.576-.922-3.176-2.36m24.115-51.129a6.54 6.54 0 0 0-4.848-2.039 6.67 6.67 0 0 0-4.893 2.039c-1.372 1.351-2.039 2.96-2.039 4.828a6.59 6.59 0 0 0 2.039 4.891 6.67 6.67 0 0 0 4.893 2.039 6.54 6.54 0 0 0 4.848-2.039c1.32-1.281 2.05-3.052 2.017-4.891 0-1.868-.665-3.477-2.017-4.828m4.699 50.1c-.557-1.352-.835-2.897-.835-4.613v-29.803h-21.221v1.009c1.674.278 2.768 1.029 3.283 2.209.535 1.202.794 3.132.794 5.793v20.792c0 1.672-.278 3.196-.815 4.569-.557 1.394-1.652 2.532-3.262 3.432v1.009h25.297v-1.009c-1.609-.9-2.703-2.039-3.24-3.389m35.511-.431c-2.596 2.209-6.265 3.348-11.028 3.389l17.721-37.376h-34.457v10.728h1.137c.666-3.346 2.446-5.643 5.3-6.93s5.943-1.995 9.291-2.146l-17.379 37.162h35.594v-12.23h-1.137c-.751 2.725-2.446 5.193-5.042 7.402m-847.036-6.243l-.729 11.071h-46.516v-1.374h1.76c.471 0 .986-.063 1.502-.171s.988-.257 1.459-.472c.451-.194.88-.472 1.245-.794.043-.043.065-.065.086-.108a2.56 2.56 0 0 0 .686-1.051c.215-.643.365-1.802.408-3.497l.065-1.545V538.52l-.043-1.331c-.043-2.896-.343-4.677-.923-5.385-.857-.945-2.231-1.439-4.183-1.48a5.85 5.85 0 0 0-1.074-.086c-.322 0-.643.022-.986.065v-1.331a6.44 6.44 0 0 1 .645-.022h43.018l.709 11.071h-1.502c-.751-2.06-1.46-3.626-2.125-4.72-.709-1.115-1.417-2.017-2.103-2.639-.3-.28-.6-.515-.9-.688-1.009-.6-2.211-.878-3.585-.878h-5.642c-.859 0-1.545.192-2.103.6-.472.343-.859.837-1.115 1.459-.58 1.395-.859 2.983-.859 4.785v13.153h4.999c1.825 0 3.176-.065 4.12-.214a4.41 4.41 0 0 0 .986-.237 3.36 3.36 0 0 0 1.159-.643c.494-.451.839-1.159 1.031-2.125.177-.748.299-1.508.365-2.274h1.072v13.861h-1.072a20.45 20.45 0 0 0-.365-2.425c-.235-.966-.6-1.652-1.115-2.082-.28-.257-.643-.451-1.074-.6a6.08 6.08 0 0 0-.986-.215c-.879-.128-2.252-.192-4.12-.192h-4.999v16.156c0 1.823.278 3.411.859 4.806.257.622.622 1.094 1.094 1.437.558.408 1.266.622 2.125.622h8.496c.923 0 1.76-.129 2.509-.408.431-.106.817-.278 1.182-.492 1.029-.58 2.017-1.674 2.96-3.24.78-1.556 1.475-3.153 2.082-4.785zm47.633 8.862c-.986-.729-2.168-2.06-3.54-4.012l-11.007-17.572 4.569-6.008c2.296-3.003 4.269-5.02 5.943-6.071 1.652-1.052 3.734-1.695 6.202-1.931v-1.009H408.11v1.009c1.288.235 1.931.814 1.931 1.715 0 1.18-1.137 3.283-3.432 6.286l-3.434 4.506-4.849-7.79c-.535-.965-.792-1.802-.792-2.509 0-1.374.879-2.06 2.639-2.06v-1.159h-26.283l.129 1.159c1.48 0 2.702.343 3.689 1.051.966.731 2.145 2.039 3.54 3.948l10.922 17.444-4.785 6.2c-2.276 3.005-4.271 5.043-5.923 6.073-1.672 1.051-3.754 1.695-6.222 1.931v1.008h12.788v-1.008c-1.288-.235-1.931-.794-1.931-1.717 0-1.222 1.137-3.325 3.432-6.286l3.648-4.72 4.934 7.939c.515.966.772 1.825.772 2.576 0 1.394-.88 2.08-2.639 2.08v1.137H422.4v-1.137c-1.482 0-2.705-.365-3.669-1.072"/>
<path id="logo-tabanko" d="M506.858 494.517c5.546-6.777 9.688-15.085 12.424-24.92s4.097-20.001 4.097-30.514c0-14.578-2.56-26.955-7.683-37.127S503.4 386.7 494.178 386.7c-2.56 0-4.956.342-7.171 1.017v119.005c7.685-1.354 14.299-5.423 19.852-12.205m-30.995 15.765c-3.674-.851-8.925-2.202-15.755-4.068a221.86 221.86 0 0 0-11.654-3.179c-3.842-.931-7.043-1.399-9.605-1.399-2.734 0-4.783.552-6.148 1.652s-2.049 3.012-2.049 5.722h-5.123V375.257c0-11.862-.345-20.426-1.025-25.681s-2.009-8.984-3.971-11.188-5.166-3.645-9.605-4.323v-3.56h76.079v49.076l27.408-8.645c14.345 0 26.769 3.139 37.271 9.408s18.444 14.41 23.821 24.41 8.07 20.26 8.07 30.769c0 12.547-3.674 24.626-11.014 36.236s-18.358 21.149-33.043 28.606-32.365 11.188-53.026 11.188c-3.419 0-6.959-.425-10.63-1.271m202.52-75.935c-10.247.851-18.358 4.876-24.335 12.079s-8.964 15.472-8.964 24.792c0 6.273 1.575 11.188 4.737 14.748s6.873 5.34 11.144 5.34c3.414 0 6.659-1.1 9.733-3.306s5.637-5.34 7.685-9.408zm-62.759 73.615c-7.345-3.305-13.279-8.093-17.802-14.367s-6.787-13.478-6.787-21.613c0-7.967 2.856-15.298 8.58-21.995s14.344-12.119 25.871-16.275 25.657-6.231 42.394-6.231c4.611 0 8.11.088 10.502.255V395.95c0-6.948-1.408-12.333-4.226-16.147s-6.191-5.722-10.117-5.722-7.345 1.908-10.247 5.722-4.356 9.114-4.356 15.893c0 8.816 3.243 16.107 9.736 21.869-10.081 3.729-18.789 5.594-26.129 5.594-8.37 0-14.858-1.948-19.469-5.848s-6.914-8.73-6.914-14.495c0-10.681 5.29-19.029 15.881-25.047s23.477-9.027 38.679-9.027c12.976 0 25.487 2.332 37.528 6.993s21.9 11.656 29.585 20.978 11.528 20.767 11.528 34.328v45.772c0 8.308 1.063 15.002 3.2 20.089s5.933 7.883 11.399 8.391v3.56h-48.924c-7.345 0-13.281-1.82-17.802-5.466s-7.39-8.602-8.582-14.876c-3.759 8.137-9.265 14.239-16.522 18.307s-15.241 6.103-23.952 6.103c-7.951.017-15.813-1.674-23.053-4.959m143.292-2.362c5.803-3.217 9.688-7.287 11.654-12.205s2.945-10.339 2.945-16.275v-61.283c0-11.862-.343-20.426-1.023-25.681s-2.011-8.984-3.971-11.188-5.166-3.645-9.605-4.323v-3.56h76.078v20.089c5.976-7.288 13.191-12.798 21.646-16.529s17.118-5.594 26-5.594c8.71 0 16.778 1.652 24.206 4.959s13.405 8.137 17.932 14.493 6.788 13.859 6.788 22.504v66.114c0 6.103.98 11.57 2.946 16.401s5.846 8.862 11.654 12.079v3.56h-90.68v-3.56c5.805-3.217 9.691-7.287 11.654-12.205s2.948-10.339 2.948-16.275v-62.554c0-8.136-1.711-14.367-5.123-18.69s-7.685-6.483-12.808-6.483c-6.148 0-11.871 2.797-17.162 8.391v79.336c0 6.103.98 11.57 2.946 16.401s5.848 8.862 11.654 12.079v3.56h-90.679zm193.164 0c5.803-3.217 9.688-7.287 11.654-12.205s2.945-10.339 2.945-16.275V375.152c0-11.864-.343-20.426-1.023-25.681s-2.011-8.984-3.971-11.19-5.166-3.643-9.605-4.322v-3.56h76.078v123.073l31.508-33.82c9.048-9.662 15.625-17.501 19.723-23.52s6.148-10.808 6.148-14.368c0-2.542-.94-4.576-2.817-6.102v-4.577h43.035v4.577c-8.71 3.731-17.252 8.817-25.615 15.258s-18.444 15.936-30.228 28.478h26.129l29.202 71.962c2.902 5.596 5.591 9.41 8.07 11.444s5.93 3.051 10.374 3.051l.511 3.306h-89.142l-.257-3.306c6.828 0 10.247-2.797 10.247-8.391 0-2.034-.429-4.068-1.282-6.103l-18.955-45.008-16.65 17.801v12.968c0 6.103.98 11.57 2.946 16.401s5.848 8.862 11.654 12.079v3.56H952.08zm275.899-18.815c3.46-13.098 5.188-28.54 5.188-46.333 0-17.459-1.689-32.532-5.062-45.219s-8.2-19.027-14.458-19.027c-7.413 0-13.221 6.423-17.421 19.275s-6.303 28.088-6.303 45.715 2.102 32.906 6.303 45.838 10.008 19.398 17.421 19.398c6.094 0 10.871-6.548 14.332-19.646m-52.387 17.421c-12.848-4.776-23.72-12.393-32.616-22.857s-13.347-23.761-13.347-39.908c0-17.296 4.408-31.174 13.221-41.638s19.563-17.83 32.251-22.117c12.679-4.282 25.451-6.425 38.299-6.425 12.188 0 24.671 2.143 37.439 6.425s23.723 11.656 32.863 22.117 13.715 24.341 13.715 41.638c0 15.981-4.571 29.243-13.715 39.784s-20.221 18.206-33.237 22.981-25.367 7.167-37.065 7.167c-12.353 0-24.957-2.389-37.808-7.167m-836.98-69.859c-10.247.851-18.358 4.876-24.335 12.079s-8.965 15.472-8.965 24.792c0 6.273 1.577 11.188 4.739 14.748s6.873 5.34 11.144 5.34c3.414 0 6.659-1.1 9.733-3.306s5.637-5.34 7.685-9.408zm-62.759 73.615c-7.345-3.305-13.279-8.093-17.802-14.367s-6.787-13.478-6.787-21.613c0-7.967 2.856-15.298 8.58-21.995s14.344-12.119 25.871-16.275 25.657-6.231 42.394-6.231c4.611 0 8.11.088 10.502.255V395.95c0-6.948-1.408-12.333-4.226-16.147s-6.191-5.722-10.117-5.722-7.345 1.908-10.247 5.722-4.356 9.114-4.356 15.893c0 8.816 3.243 16.107 9.736 21.869-10.081 3.729-18.789 5.594-26.129 5.594-8.37 0-14.858-1.948-19.469-5.848s-6.914-8.73-6.914-14.495c0-10.681 5.29-19.029 15.881-25.047s23.477-9.027 38.679-9.027c12.976 0 25.487 2.332 37.528 6.993s21.9 11.656 29.585 20.978 11.528 20.767 11.528 34.328v45.772c0 8.308 1.063 15.002 3.2 20.089s5.933 7.883 11.399 8.391v3.56h-48.924c-7.347 0-13.281-1.82-17.802-5.466s-7.39-8.602-8.584-14.876c-3.757 8.137-9.264 14.239-16.521 18.307s-15.241 6.103-23.952 6.103c-8.028 0-15.713-1.652-23.053-4.959m-141.047 68.977c6.108-3.386 10.199-7.67 12.267-12.847s3.102-10.881 3.102-17.129V320.109h-8.897c-19.593 0-35.993 3.659-49.204 10.973s-22.958 16.685-29.252 28.103-9.437 23.377-9.437 35.863c0 13.205 2.743 24.401 8.225 33.588s12.893 12.688 22.06 12.688c5.028 0 9.088-1.431 11.965-3.933s4.123-4.339 4.123-8.087c0-3.211-.943-6.29-2.831-9.233s-4.988-4.683-9.3-5.22c0-3.386 1.886-6.733 5.662-10.034s8.087-4.953 12.941-4.953c6.648 0 11.864 1.74 15.636 5.219s5.662 7.808 5.662 12.981c0 4.282-1.392 8.477-4.177 12.579s-6.97 7.453-12.538 10.037-12.313 3.88-20.221 3.88c-19.589 0-36.17-2.899-49.744-8.699s-23.767-13.47-30.599-23.017S0 393.087 0 382.201c0-11.416 3.599-22.301 10.784-32.651s17.707-18.736 31.546-25.16 30.289-9.634 49.338-9.634H220.81c10.962 0 20.31-1.782 28.04-5.353s13.524-8.117 17.39-13.65 5.797-11.241 5.797-17.129c0-4.637-1.395-8.071-4.179-10.305s-6.159-3.345-10.111-3.345c-3.236 0-6.159.715-8.762 2.142s-4.091 3.211-4.449 5.353c-4.136-1.246-7.371-3.612-9.705-7.093s-3.505-7.536-3.505-12.178c0-7.494 2.783-14.139 8.357-19.939s13.299-8.697 23.187-8.697c8.447 0 15.813 1.919 22.107 5.753s11.054 8.925 14.29 15.256 4.853 13.161 4.853 20.475c0 8.924-3.192 17.53-9.571 25.827s-15.73 15.079-28.04 20.34-26.737 7.896-43.273 7.896h-8.357v226.855c0 6.423 1.034 12.178 3.1 17.262s6.156 9.327 12.268 12.713v3.746h-95.442z"/>
</g>
</svg>