<svg xmlns="http://www.w3.org/2000/svg" viewBox="0 0 2048 991"><g transform="matrix(1.333333 0 0 -1.333333 0 2220.7467)"><path d="M0 922.31h1536v743.25H0z" fill="#2c2928"/><g transform="matrix(.922215 0 0 .922215 .607761 525.69647)" fill="#d7b66b"><path d="M1081.378 699.67c-7.266 0-13.156 15.8-13.156 35.291s5.89 35.29 13.156 35.29 13.157-15.8 13.157-35.29-5.891-35.291-13.157-35.291m-13.156 110.243c0 19.491 5.89 35.291 13.156 35.291s13.157-15.8 13.157-35.291-5.891-35.29-13.157-35.29-13.156 15.8-13.156 35.29m25.427-37.476c19.644 4.511 34.085 19.576 34.085 37.477 0 21.463-20.754 38.863-46.356 38.863s-46.356-17.4-46.356-38.863c0-17.901 14.441-32.966 34.086-37.477-19.645-4.511-34.086-19.576-34.086-37.476 0-21.464 20.755-38.864 46.356-38.864s46.356 17.4 46.356 38.864c0 17.9-14.441 32.965-34.085 37.476m59.354-70.578c-7.759 0-13.931-.823-18.517-2.469 0 6.308 1.293 12.516 3.88 18.622s5.789 11.796 9.611 17.079 9.083 12.037 15.784 20.268c7.169 8.777 12.931 16.22 17.282 22.325s8.024 12.825 11.022 20.165a60.09 60.09 0 0 1 4.497 22.944c0 6.996-1.001 12.551-2.998 16.667s-4.999 6.172-8.994 6.172c-5.175 0-9.201-2.745-12.08-8.23s-4.32-12.073-4.32-19.754c0-6.037.881-11.728 2.644-17.078s4.41-9.604 7.936-12.758c-1.647-2.058-3.852-3.601-6.612-4.63s-5.793-1.543-9.083-1.543c-7.759 0-14.196 2.572-19.31 7.716s-7.672 12.105-7.672 20.886c0 9.188 2.439 16.77 7.319 22.737s10.904 10.288 18.076 12.963 14.285 4.013 21.339 4.013c10.697 0 20.161-1.543 28.392-4.63s14.637-7.613 19.223-13.581 6.878-13.136 6.878-21.502c0-9.877-2.795-18.693-8.378-26.441s-12.14-14.301-19.663-19.651-17.048-11.318-28.569-17.902c-9.054-5.076-15.725-9.156-20.015-12.243s-6.851-6.208-7.672-9.363c4.348 3.155 9.758 5.248 16.225 6.277s14.694 1.678 24.689 1.954c8.112.274 14.518.65 19.222 1.132s9.052 1.575 13.05 3.292 6.993 4.286 8.994 7.717l1.764-1.441c-.706-1.923-1.411-4.733-2.117-8.436-1.648-7.135-3.35-13.169-5.114-18.108s-4.585-9.33-8.465-13.169-8.935-5.761-15.166-5.761c-2.469 0-4.351.138-5.643.411-20.575 3.566-36.389 5.35-47.439 5.35m109.025-2.058c-5.996 2.469-10.581 5.829-13.756 10.083s-4.761 8.915-4.761 13.992c0 8.777 2.116 15.191 6.349 19.239s9.286 6.07 15.166 6.07c3.409 0 6.495-.585 9.258-1.749s4.555-2.643 5.379-4.424c-3.059-1.784-5.497-4.701-7.318-8.745a30.47 30.47 0 0 1-2.734-12.655c0-6.996 1.262-12.314 3.791-15.947s5.671-5.453 9.435-5.453c3.409 0 6.73 1.37 9.964 4.115s5.908 6.72 8.024 11.935 3.174 11.317 3.174 18.314c0 6.584-1.617 12.757-4.849 18.519a38.21 38.21 0 0 1-13.227 13.889c-5.585 3.498-11.727 5.247-18.428 5.247-6.586 0-12.992-1.717-19.223-5.144l10.934 75.516h64.016c2.821.412 4.819 2.125 5.996 5.144h3.35l-3.35-43.211h-70.365l-4.232-29.219c4.938 4.527 11.286 8.196 19.046 11.009s15.635 4.218 23.631 4.218c13.284 0 23.953-3.98 32.008-11.935s12.08-18.93 12.08-32.922c0-9.054-2.469-17.355-7.407-24.898s-11.815-13.548-20.633-18.004-18.93-6.688-30.333-6.688c-7.996 0-14.989 1.234-20.985 3.704m-1007.856-1.268c3.97 2.201 6.629 4.985 7.973 8.35s2.016 7.072 2.016 11.133v147.448h-5.783c-12.735 0-23.394-2.378-31.981-7.132s-14.922-10.845-19.013-18.266-6.134-15.194-6.134-23.31c0-8.583 1.783-15.86 5.346-21.831s8.38-8.247 14.338-8.247c3.268 0 5.907.93 7.777 2.556s2.68 2.82 2.68 5.256c0 2.087-.613 4.088-1.84 6.001s-3.242 3.044-6.045 3.393c0 2.201 1.226 4.376 3.68 6.522s5.256 3.219 8.411 3.219c4.321 0 7.711-1.131 10.163-3.392s3.68-5.075 3.68-8.437c0-2.783-.905-5.51-2.715-8.176s-4.53-4.844-8.149-6.524-8.003-2.522-13.143-2.522c-12.732 0-23.509 1.884-32.332 5.654s-15.448 8.755-19.888 14.96-6.66 12.843-6.66 19.918c0 7.42 2.339 14.495 7.009 21.222s11.509 12.178 20.504 16.353 19.687 6.262 32.068 6.262h83.938c7.125 0 13.201 1.158 18.225 3.479s8.79 5.276 11.303 8.872 3.768 7.306 3.768 11.133c0 3.014-.907 5.246-2.716 6.698s-4.003 2.174-6.572 2.174c-2.103 0-4.003-.465-5.695-1.392s-2.659-2.087-2.892-3.479c-2.688.81-4.791 2.348-6.308 4.61s-2.278 4.898-2.278 7.915c0 4.871 1.809 9.19 5.432 12.96s8.644 5.653 15.071 5.653c5.49 0 10.278-1.247 14.369-3.739s7.185-5.801 9.288-9.916 3.154-8.554 3.154-13.308c0-5.8-2.075-11.394-6.221-16.787s-10.224-9.801-18.225-13.22-17.378-5.132-28.126-5.132h-5.432V718.016c0-4.175.672-7.915 2.015-11.22s4.001-6.062 7.974-8.263v-2.435h-62.034zm153.582 5.782l-.474-7.196h-30.234v.893h1.144c.306 0 .641.041.976.111s.642.167.948.307c.293.126.572.307.809.516.028.028.042.042.056.07.209.195.362.432.446.683.14.418.237 1.171.265 2.273l.042 1.004v20.528l-.028.865c-.028 1.882-.223 3.04-.6 3.5-.557.614-1.45.935-2.719.962-.223.042-.46.056-.698.056-.209 0-.418-.014-.641-.042v.865a4.18 4.18 0 0 0 .419.014h27.96l.461-7.196h-.976c-.488 1.339-.949 2.357-1.381 3.068-.461.725-.921 1.311-1.367 1.715-.195.182-.39.335-.585.447-.656.39-1.437.571-2.33.571h-3.667c-.558 0-1.004-.125-1.367-.39-.307-.223-.558-.544-.725-.948-.377-.907-.558-1.939-.558-3.11v-8.549h3.249c1.186 0 2.064.042 2.678.139.237.028.446.084.641.154.293.097.544.237.753.418.321.293.545.753.67 1.381a10.22 10.22 0 0 1 .237 1.478h.697v-9.009h-.697c-.042.461-.112.99-.237 1.576-.153.628-.39 1.074-.725 1.353-.182.167-.418.293-.698.39-.195.056-.404.112-.641.14-.571.083-1.464.125-2.678.125h-3.249v-10.501c0-1.185.181-2.217.558-3.124.167-.404.404-.711.711-.934.363-.265.823-.404 1.381-.404h5.522c.6 0 1.144.084 1.631.265.28.069.531.181.768.32.669.377 1.311 1.088 1.924 2.106a31.1 31.1 0 0 1 1.353 3.11zm30.96-5.76c-.641.474-1.409 1.339-2.301 2.608l-7.154 11.421 2.97 3.905c1.492 1.952 2.775 3.263 3.863 3.946 1.074.684 2.427 1.102 4.031 1.255v.656h-8.312v-.656c.837-.153 1.255-.529 1.255-1.115 0-.767-.739-2.134-2.231-4.086l-2.232-2.929-3.152 5.063c-.348.627-.515 1.171-.515 1.631 0 .893.571 1.339 1.715 1.339v.753h-17.083l.084-.753c.962 0 1.756-.223 2.398-.683.628-.475 1.394-1.325 2.301-2.566l7.099-11.338-3.11-4.03c-1.479-1.953-2.776-3.278-3.85-3.947-1.087-.683-2.44-1.102-4.044-1.255v-.655h8.312v.655c-.837.153-1.255.516-1.255 1.116 0 .794.739 2.161 2.231 4.086l2.371 3.068 3.207-5.16c.335-.628.502-1.186.502-1.674 0-.906-.572-1.352-1.715-1.352v-.739h17v.739c-.963 0-1.758.237-2.385.697"/><path d="M461.864 702.111c-.962-1.939-2.329-3.04-4.128-3.319-.098-.028-.391 0-.878.098v21.462c2.036-.349 3.625-1.632 4.755-3.835 1.129-2.218 1.701-4.756 1.701-7.601 0-2.594-.488-4.867-1.45-6.805m10.947 13.792a11.02 11.02 0 0 1-4.155 4.672c-1.87 1.185-4.128 1.771-6.792 1.771l-5.006-1.576v1.576h-13.807v-.656c.809-.125 1.395-.39 1.743-.78.363-.405.6-1.088.725-2.051s.182-2.524.182-4.699v-18.576c0-1.088-.182-2.078-.53-2.97-.362-.907-1.06-1.646-2.12-2.231v-.656h16.442v.656c-1.046.585-1.757 1.324-2.105 2.203-.363.878-.53 1.883-.53 2.998v2.747c1.477-1.268 3.179-1.91 5.103-1.91 2.538 0 4.728.628 6.569 1.883a12.11 12.11 0 0 1 4.211 4.95c.962 2.036 1.437 4.198 1.437 6.457 0 2.189-.46 4.267-1.367 6.192m15.075-3.542c0 2.691.446 4.979 1.339 6.847.906 1.869 2.147 2.803 3.723 2.803.642 0 1.129-.348 1.464-1.06.321-.711.488-1.631.488-2.747 0-2.566-.544-4.685-1.603-6.359-1.074-1.674-2.469-2.51-4.212-2.51-.209 0-.544.028-.976.098-.154.99-.223 1.966-.223 2.928m14.308-6.791c-.251-1.73-.837-3.055-1.771-3.947-.921-.893-2.078-1.353-3.431-1.353-1.185 0-2.357.321-3.528.962-1.185.628-2.231 1.577-3.166 2.831s-1.589 2.748-1.994 4.477c1.674-.391 3.179-.6 4.546-.6 2.845 0 5.23.67 7.154 2.022s2.887 3.208 2.887 5.593c0 2.51-1.13 4.337-3.389 5.48-2.273 1.158-4.95 1.729-8.047 1.729-3.193 0-5.871-.641-8.06-1.938-2.175-1.283-3.793-2.943-4.853-4.993-1.046-2.036-1.575-4.197-1.575-6.456 0-2.943.71-5.383 2.133-7.308 1.422-1.938 3.249-3.361 5.481-4.253s4.588-1.353 7.07-1.353c2.008 0 3.863.363 5.564 1.102 1.701.725 3.082 1.771 4.142 3.152 1.046 1.38 1.632 2.998 1.757 4.853zm28.059 15.912c-.753.851-1.827 1.283-3.249 1.283-1.52 0-3.041-.628-4.561-1.883s-2.747-2.705-3.667-4.351v5.815h-13.793v-.655c.795-.125 1.381-.39 1.73-.781.362-.404.599-1.087.725-2.05s.181-2.524.181-4.699v-11.185c0-1.088-.167-2.078-.53-2.97-.349-.907-1.06-1.646-2.106-2.232v-.655h16.442v.655c-1.06.586-1.757 1.325-2.119 2.204-.349.878-.53 1.882-.53 2.998v11.463c.613 1.088 1.324 2.12 2.105 3.096.795.976 1.479 1.674 2.078 2.12-.125-.404-.195-.753-.195-1.032 0-1.325.432-2.371 1.311-3.11.865-.739 1.883-1.115 3.054-1.115 1.157 0 2.148.362 2.984 1.073s1.255 1.688 1.255 2.929c0 1.199-.376 2.231-1.115 3.082m14.252 11.058a4.25 4.25 0 0 1-3.151 1.325c-1.242 0-2.302-.446-3.18-1.325-.892-.878-1.325-1.924-1.325-3.138 0-1.241.433-2.301 1.325-3.179.878-.879 1.938-1.325 3.18-1.325a4.25 4.25 0 0 1 3.151 1.325c.865.878 1.311 1.938 1.311 3.179 0 1.214-.446 2.26-1.311 3.138m3.04-32.563c-.348.879-.529 1.883-.529 2.998v19.371h-13.793v-.656c1.088-.181 1.799-.669 2.134-1.436.335-.781.516-2.036.516-3.765v-13.514c0-1.087-.181-2.077-.544-2.97-.349-.906-1.06-1.646-2.106-2.231v-.656h16.442v.656c-1.046.585-1.757 1.325-2.12 2.203m14.894 12.384c0 2.691.446 4.979 1.352 6.847.893 1.869 2.134 2.803 3.71 2.803.655 0 1.143-.348 1.464-1.06.335-.711.488-1.631.488-2.747 0-2.566-.529-4.685-1.603-6.359-1.06-1.674-2.469-2.51-4.198-2.51-.223 0-.544.028-.976.098-.154.99-.237 1.966-.237 2.928m14.308-6.791c-.251-1.73-.837-3.055-1.757-3.947-.935-.893-2.078-1.353-3.445-1.353-1.171 0-2.357.321-3.528.962-1.185.628-2.231 1.577-3.166 2.831-.92 1.255-1.589 2.748-1.994 4.477 1.674-.391 3.194-.6 4.56-.6 2.845 0 5.23.67 7.154 2.022 1.911 1.353 2.873 3.208 2.873 5.593 0 2.51-1.13 4.337-3.389 5.48-2.259 1.158-4.936 1.729-8.032 1.729-3.194 0-5.886-.641-8.061-1.938-2.189-1.283-3.807-2.943-4.853-4.993-1.06-2.036-1.589-4.197-1.589-6.456 0-2.943.71-5.383 2.147-7.308a12.38 12.38 0 0 1 5.48-4.253c2.232-.893 4.575-1.353 7.057-1.353 2.008 0 3.876.363 5.578 1.102 1.702.725 3.082 1.771 4.128 3.152 1.06 1.38 1.646 2.998 1.771 4.853zm34.627-5.593c-.349.879-.53 1.883-.53 2.998v12.077c0 1.576-.404 2.943-1.227 4.114-.823 1.158-1.91 2.036-3.249 2.636-1.353.614-2.818.906-4.394.906-1.617 0-3.179-.334-4.713-1.018a10.61 10.61 0 0 1-3.932-3.012v3.668h-13.793v-.656c.809-.125 1.381-.39 1.743-.78.349-.405.6-1.088.726-2.051.111-.962.181-2.524.181-4.699v-11.185c0-1.087-.181-2.077-.53-2.97-.363-.906-1.074-1.646-2.12-2.231v-.656h16.442v.656c-1.046.585-1.757 1.325-2.105 2.203-.363.879-.544 1.883-.544 2.998v14.49c.962 1.018 2.008 1.534 3.123 1.534.921 0 1.702-.391 2.315-1.186.628-.794.934-1.924.934-3.416v-11.422c0-1.087-.181-2.077-.544-2.97-.348-.906-1.059-1.646-2.105-2.231v-.656h16.442v.656c-1.046.585-1.758 1.325-2.12 2.203m29.063 5.593c-.251-1.576-.809-2.776-1.674-3.57-.864-.809-1.924-1.214-3.151-1.214-1.395 0-2.803.489-4.24 1.465-1.422.976-2.593 2.343-3.528 4.086-.92 1.757-1.394 3.751-1.394 6.024 0 2.664.418 4.853 1.255 6.597.837 1.729 2.05 2.594 3.626 2.594.655 0 1.143-.349 1.492-1.046.335-.698.502-1.576.502-2.622 0-.99-.154-1.98-.46-2.957s-.753-1.757-1.339-2.343c.432-.557.99-.976 1.659-1.255.684-.278 1.437-.418 2.231-.418.963 0 1.898.195 2.818.586.907.39 1.66.948 2.231 1.673s.85 1.576.85 2.524c0 2.483-1.143 4.282-3.458 5.397-2.301 1.116-4.978 1.674-8.004 1.674-3.194 0-5.886-.642-8.061-1.939-2.19-1.282-3.808-2.942-4.853-4.992-1.06-2.036-1.59-4.198-1.59-6.457 0-2.943.711-5.383 2.134-7.308a12.5 12.5 0 0 1 5.494-4.253c2.232-.893 4.575-1.353 7.057-1.353 2.008 0 3.877.363 5.578 1.102 1.702.725 3.082 1.771 4.128 3.152 1.06 1.38 1.646 2.998 1.771 4.853zm13.848 6.791c0 2.691.446 4.979 1.339 6.847.906 1.869 2.147 2.803 3.723 2.803.656 0 1.13-.348 1.465-1.06.32-.711.487-1.631.487-2.747 0-2.566-.529-4.685-1.603-6.359s-2.469-2.51-4.212-2.51c-.209 0-.53.028-.976.098-.154.99-.223 1.966-.223 2.928m14.308-6.791c-.251-1.73-.837-3.055-1.771-3.947-.92-.893-2.078-1.353-3.431-1.353-1.185 0-2.357.321-3.528.962-1.185.628-2.231 1.577-3.165 2.831s-1.59 2.748-1.995 4.477c1.674-.391 3.18-.6 4.547-.6 2.858 0 5.243.67 7.154 2.022 1.924 1.353 2.886 3.208 2.886 5.593 0 2.51-1.13 4.337-3.388 5.48-2.274 1.158-4.951 1.729-8.047 1.729-3.193 0-5.871-.641-8.061-1.938-2.175-1.283-3.793-2.943-4.853-4.993a13.97 13.97 0 0 1-1.576-6.456c0-2.943.712-5.383 2.134-7.308 1.422-1.938 3.249-3.361 5.481-4.253a18.86 18.86 0 0 1 7.07-1.353c2.009 0 3.863.363 5.564 1.102 1.701.725 3.082 1.771 4.142 3.152 1.046 1.38 1.632 2.998 1.757 4.853zm29.523 26.301c.878.558 1.798.837 2.761.837v.836c-1.06 0-2.301-.097-3.737-.264-1.451-.168-2.859-.488-4.254-.949-2.134-.655-3.877-1.618-5.229-2.9-1.34-1.283-2.023-2.971-2.023-5.049v-2.036h-1.673v-1.855h1.673v-17.515c0-1.088-.181-2.078-.529-2.971-.363-.906-1.061-1.645-2.12-2.231v-.655h16.455v.655c-1.06.586-1.757 1.325-2.119 2.203-.349.879-.53 1.883-.53 2.999v17.515h3.486v1.855h-3.486v6.262c0 1.617.432 2.705 1.325 3.263m50.734-30.875c-.656-2.454-1.548-3.696-2.692-3.696-1.394 0-2.496 1.214-3.277 3.654-.795 2.427-1.186 5.299-1.186 8.618 0 3.305.391 6.178 1.186 8.591.781 2.412 1.883 3.626 3.277 3.626 1.171 0 2.078-1.199 2.72-3.584.627-2.385.948-5.216.948-8.493 0-3.347-.321-6.248-.976-8.716m10.473 16.358c-1.715 1.966-3.779 3.347-6.178 4.156s-4.741 1.199-7.043 1.199a22.26 22.26 0 0 1-7.196-1.199c-2.384-.809-4.406-2.19-6.065-4.156s-2.483-4.574-2.483-7.837c0-3.026.837-5.537 2.51-7.503a14.61 14.61 0 0 1 6.136-4.295c2.413-.893 4.783-1.339 7.098-1.339 2.204 0 4.533.446 6.973 1.339 2.441.906 4.533 2.342 6.248 4.323s2.58 4.476 2.58 7.475c0 3.263-.865 5.871-2.58 7.837"/><path d="M727.694 721.482c-.74.851-1.827 1.283-3.249 1.283-1.52 0-3.041-.628-4.547-1.883-1.52-1.255-2.747-2.705-3.681-4.351v5.815h-13.793v-.655c.809-.125 1.395-.39 1.744-.781.362-.404.599-1.087.725-2.05s.181-2.524.181-4.699v-11.185c0-1.088-.181-2.078-.53-2.97-.363-.907-1.06-1.646-2.12-2.232v-.655h16.442v.655c-1.046.586-1.757 1.325-2.106 2.204-.362.878-.543 1.882-.543 2.998v11.463a23.19 23.19 0 0 0 2.12 3.096c.794.976 1.477 1.674 2.063 2.12-.125-.404-.181-.753-.181-1.032 0-1.325.432-2.371 1.297-3.11s1.896-1.115 3.068-1.115c1.144 0 2.134.362 2.97 1.073s1.255 1.688 1.255 2.929c0 1.199-.362 2.231-1.115 3.082m84.26-18.506v12.077c0 1.604-.391 2.97-1.144 4.114-.767 1.129-1.785 1.98-3.068 2.566-1.283.6-2.691.892-4.198.892-1.715 0-3.402-.376-5.09-1.115a12.35 12.35 0 0 1-4.392-3.25c-.684 1.395-1.771 2.483-3.25 3.264-1.492.794-3.137 1.185-4.923 1.185-1.617 0-3.179-.335-4.713-1.018a10.62 10.62 0 0 1-3.933-3.012v3.667h-13.792v-.655c.809-.125 1.381-.391 1.743-.781.349-.404.586-1.088.712-2.05s.195-2.524.195-4.7v-11.184c0-1.088-.182-2.078-.544-2.971-.349-.906-1.06-1.645-2.106-2.231v-.655h16.442v.655c-1.046.586-1.757 1.325-2.12 2.204-.349.878-.53 1.882-.53 2.998v14.448c.99 1.018 2.008 1.534 3.068 1.534.935 0 1.716-.405 2.343-1.214.641-.808.948-1.924.948-3.347v-11.421c0-1.088-.167-2.078-.529-2.971-.349-.906-1.06-1.645-2.106-2.231v-.655h16.442v.655c-1.061.586-1.758 1.325-2.12 2.204-.349.878-.53 1.882-.53 2.998v12.077c0 .865-.112 1.618-.321 2.273.99 1.088 2.022 1.632 3.11 1.632.934 0 1.701-.405 2.315-1.214.627-.808.935-1.924.935-3.347v-11.421c0-1.088-.182-2.078-.53-2.971-.363-.906-1.06-1.645-2.121-2.231v-.655h16.442v.655c-1.046.586-1.757 1.325-2.105 2.204-.362.878-.53 1.882-.53 2.998m41.195 2.594c-.251-1.576-.809-2.776-1.674-3.57-.865-.809-1.91-1.214-3.151-1.214-1.395 0-2.804.489-4.226 1.465-1.436.976-2.608 2.343-3.542 4.086-.921 1.757-1.381 3.751-1.381 6.024 0 2.664.419 4.853 1.255 6.597.823 1.729 2.036 2.594 3.612 2.594.656 0 1.144-.349 1.493-1.046.334-.698.515-1.576.515-2.622 0-.99-.167-1.98-.474-2.957s-.753-1.757-1.338-2.343c.432-.557.99-.976 1.673-1.255.67-.278 1.423-.418 2.217-.418.963 0 1.897.195 2.818.586.906.39 1.659.948 2.23 1.673s.851 1.576.851 2.524c0 2.483-1.144 4.282-3.458 5.397-2.301 1.116-4.978 1.674-8.005 1.674-3.194 0-5.885-.642-8.06-1.939-2.19-1.282-3.808-2.942-4.853-4.992-1.061-2.036-1.59-4.198-1.59-6.457 0-2.943.71-5.383 2.147-7.308a12.39 12.39 0 0 1 5.481-4.253 18.79 18.79 0 0 1 7.057-1.353c2.008 0 3.876.363 5.578 1.102 1.701.725 3.082 1.771 4.128 3.152 1.059 1.38 1.645 2.998 1.77 4.853zm18.771-2.929c-.377-.739-.837-1.311-1.395-1.715s-1.144-.6-1.771-.6c-.767 0-1.436.321-2.008.976-.572.642-.865 1.548-.865 2.692 0 1.701.544 3.207 1.632 4.532 1.074 1.311 2.552 2.05 4.407 2.204zm11.728-3.333c-.39.92-.572 2.148-.572 3.668v8.353c0 2.482-.697 4.574-2.091 6.276s-3.194 2.984-5.37 3.835c-2.189.85-4.448 1.269-6.805 1.269-2.761 0-5.09-.544-7.015-1.646s-2.886-2.622-2.886-4.574c0-1.046.418-1.938 1.255-2.65s2.022-1.06 3.528-1.06c1.338 0 2.915.335 4.742 1.018-1.172 1.046-1.758 2.385-1.758 3.989 0 1.241.251 2.217.781 2.914.53.684 1.144 1.032 1.855 1.032.725 0 1.325-.348 1.841-1.032.516-.697.767-1.687.767-2.956v-5.801l-1.911.042c-3.026 0-5.592-.377-7.683-1.144-2.092-.753-3.654-1.743-4.687-2.97-1.046-1.227-1.562-2.566-1.562-4.017 0-1.492.405-2.803 1.228-3.946a7.87 7.87 0 0 1 3.235-2.622c1.325-.614 2.72-.907 4.184-.907 1.576 0 3.026.363 4.337 1.116 1.311.739 2.315 1.855 2.998 3.333.223-1.144.739-2.05 1.562-2.705.809-.67 1.897-1.004 3.221-1.004h8.87v.655c-.99.084-1.673.6-2.064 1.534m19.538.404c-1.493 0-2.677.962-3.556 2.859-.879 1.911-1.325 4.142-1.325 6.722 0 2.845.543 5.229 1.645 7.154 1.102 1.91 2.706 2.817 4.812 2.691v-17.055a6.03 6.03 0 0 1 .279-1.855c-.684-.335-1.297-.516-1.855-.516m13.304-.404c-.391.92-.572 2.147-.572 3.667v26.748h-13.806v-.641c.809-.126 1.395-.391 1.743-.796.363-.404.6-1.087.726-2.035.125-.963.181-2.524.181-4.7v-1.395c-2.26 1.548-4.463 2.329-6.597 2.329-2.315 0-4.323-.613-5.996-1.813-1.674-1.213-2.929-2.789-3.78-4.741a15.44 15.44 0 0 1-1.283-6.22c0-2.231.433-4.323 1.283-6.248a11.1 11.1 0 0 1 3.835-4.699c1.702-1.185 3.766-1.785 6.178-1.785.684 0 1.395.042 2.134.139l4.644 2.692c.335-.837.892-1.493 1.646-1.966.767-.489 1.715-.726 2.859-.726h8.869v.656c-.99.083-1.674.599-2.064 1.534m15.674 33.232a4.25 4.25 0 0 1-3.151 1.325c-1.242 0-2.301-.446-3.18-1.325-.892-.878-1.325-1.924-1.325-3.138 0-1.241.433-2.301 1.325-3.179.879-.879 1.938-1.325 3.18-1.325a4.25 4.25 0 0 1 3.151 1.325 4.32 4.32 0 0 1 1.311 3.179c0 1.214-.432 2.26-1.311 3.138m3.054-32.563c-.362.879-.543 1.883-.543 2.998v19.371h-13.793v-.656c1.088-.181 1.799-.669 2.134-1.436.348-.781.516-2.036.516-3.765v-13.514c0-1.087-.181-2.077-.53-2.97-.362-.906-1.074-1.646-2.12-2.231v-.656h16.442v.656c-1.046.585-1.757 1.325-2.106 2.203m23.081.28c-1.687-1.436-4.072-2.176-7.168-2.203l11.518 24.293h-22.396v-6.973h.739c.433 2.175 1.59 3.668 3.445 4.504s3.863 1.297 6.039 1.395l-11.296-24.154h23.135v7.949h-.739c-.488-1.771-1.59-3.375-3.277-4.811m-571.66 90.956c-6.66-.553-11.932-3.169-15.817-7.851s-5.827-10.056-5.827-16.114c0-4.077 1.025-7.272 3.08-9.586s4.467-3.471 7.243-3.471c2.219 0 4.328.715 6.326 2.149s3.664 3.471 4.995 6.115zm-40.791-47.847c-4.774 2.148-8.631 5.26-11.571 9.338s-4.411 8.76-4.411 14.048c0 5.178 1.856 9.943 5.577 14.296s9.323 7.877 16.815 10.578 16.676 4.05 27.555 4.05c2.997 0 5.271-.057 6.826-.166v20.66c0 4.516-.915 8.016-2.747 10.495s-4.024 3.719-6.576 3.719-4.774-1.24-6.66-3.719-2.831-5.924-2.831-10.33c0-5.73 2.108-10.469 6.328-14.214-6.552-2.424-12.212-3.636-16.983-3.636-5.44 0-9.657 1.266-12.654 3.801s-4.494 5.674-4.494 9.421c0 6.942 3.438 12.368 10.322 16.28s15.259 5.867 25.14 5.867c8.434 0 16.566-1.516 24.392-4.545s14.234-7.576 19.229-13.635 7.493-13.498 7.493-22.312v-29.75c0-5.4.691-9.751 2.08-13.057s3.856-5.124 7.409-5.454v-2.314h-31.799c-4.775 0-8.632 1.183-11.571 3.553s-4.803 5.591-5.579 9.669c-2.442-5.289-6.021-9.255-10.738-11.899s-9.906-3.967-15.568-3.967c-5.218 0-10.213 1.074-14.984 3.223"/><path d="M495.994 752.105c3.605 4.405 6.297 9.805 8.075 16.197s2.663 13 2.663 19.833c0 9.475-1.664 17.52-4.994 24.131s-7.992 9.916-13.986 9.916c-1.664 0-3.221-.222-4.661-.661v-77.349c4.995.88 9.294 3.525 12.903 7.933m-20.146-10.247c-2.388.553-5.801 1.431-10.24 2.644a144.2 144.2 0 0 1-7.575 2.066c-2.497.605-4.578.909-6.243.909-1.777 0-3.109-.359-3.996-1.074s-1.332-1.958-1.332-3.719h-3.33v86.936c0 7.71-.224 13.276-.666 16.692s-1.306 5.839-2.581 7.272-3.358 2.369-6.243 2.81v2.314h49.449V826.81l17.814 5.619c9.324 0 17.399-2.04 24.225-6.115s11.988-9.366 15.483-15.866 5.245-13.168 5.245-19.999c0-8.155-2.388-16.006-7.159-23.552s-11.932-13.746-21.477-18.593-21.036-7.272-34.465-7.272c-2.222 0-4.523.276-6.909.826m131.631 49.355c-6.66-.553-11.932-3.169-15.817-7.851s-5.826-10.056-5.826-16.114c0-4.077 1.024-7.272 3.079-9.586s4.467-3.471 7.243-3.471c2.219 0 4.328.715 6.326 2.149s3.664 3.471 4.995 6.115zm-40.791-47.847c-4.774 2.148-8.631 5.26-11.571 9.338s-4.411 8.76-4.411 14.048c0 5.178 1.856 9.943 5.577 14.296s9.323 7.877 16.815 10.578 16.676 4.05 27.555 4.05c2.997 0 5.271-.057 6.826-.166v20.66c0 4.516-.915 8.016-2.747 10.495s-4.024 3.719-6.576 3.719-4.774-1.24-6.66-3.719-2.831-5.924-2.831-10.33c0-5.73 2.108-10.469 6.328-14.214-6.552-2.424-12.212-3.636-16.983-3.636-5.44 0-9.657 1.266-12.654 3.801s-4.494 5.674-4.494 9.421c0 6.942 3.438 12.368 10.322 16.28s15.259 5.867 25.14 5.867c8.434 0 16.566-1.516 24.392-4.545s14.234-7.576 19.229-13.635 7.493-13.498 7.493-22.312v-29.75c0-5.4.691-9.751 2.08-13.057s3.856-5.124 7.409-5.454v-2.314h-31.799c-4.774 0-8.632 1.183-11.571 3.553s-4.803 5.591-5.578 9.669c-2.443-5.289-6.022-9.255-10.739-11.899s-9.906-3.967-15.568-3.967a36.09 36.09 0 0 0-14.984 3.223m93.135 1.535c3.772 2.091 6.297 4.736 7.575 7.933s1.914 6.72 1.914 10.578v39.832c0 7.71-.223 13.276-.665 16.692s-1.307 5.839-2.581 7.272-3.358 2.369-6.243 2.81v2.314h49.448v-13.057c3.884 4.737 8.574 8.318 14.069 10.743s11.126 3.636 16.899 3.636c5.661 0 10.905-1.074 15.733-3.223s8.713-5.289 11.655-9.42 4.412-9.008 4.412-14.627v-42.972c0-3.967.637-7.52 1.915-10.66s3.8-5.76 7.575-7.851v-2.314H722.59v2.314c3.773 2.091 6.299 4.736 7.575 7.933s1.916 6.72 1.916 10.578v40.658c0 5.288-1.112 9.338-3.33 12.148s-4.995 4.214-8.325 4.214c-3.996 0-7.716-1.818-11.155-5.454v-51.566c0-3.967.637-7.52 1.915-10.66s3.801-5.76 7.575-7.851v-2.314h-58.938zm125.55 0c3.772 2.091 6.297 4.736 7.575 7.933s1.914 6.72 1.914 10.578v66.276c0 7.711-.223 13.276-.665 16.692s-1.307 5.839-2.581 7.273-3.358 2.368-6.243 2.809v2.314h49.448v-79.993l20.479 21.982c5.881 6.28 10.156 11.375 12.819 15.287s3.996 7.025 3.996 9.339c0 1.652-.611 2.974-1.831 3.966v2.975h27.971v-2.975c-5.661-2.425-11.213-5.731-16.649-9.917s-11.988-10.358-19.647-18.51h16.983l18.98-46.773c1.886-3.637 3.634-6.116 5.245-7.438s3.854-1.983 6.743-1.983l.332-2.149h-57.939l-.167 2.149c4.438 0 6.66 1.818 6.66 5.454 0 1.322-.279 2.644-.833 3.967l-12.32 29.254-10.822-11.57v-8.429c0-3.967.637-7.52 1.915-10.66s3.801-5.76 7.575-7.851v-2.314h-58.938zm179.325 12.229c2.249 8.513 3.372 18.55 3.372 30.115 0 11.348-1.098 21.145-3.29 29.391s-5.33 12.367-9.397 12.367c-4.818 0-8.593-4.175-11.323-12.528s-4.097-18.256-4.097-29.713 1.366-21.388 4.097-29.793 6.505-12.608 11.323-12.608c3.961 0 7.066 4.256 9.315 12.769m-34.05-11.323c-8.351 3.104-15.417 8.055-21.199 14.856s-8.675 15.444-8.675 25.939c0 11.242 2.865 20.262 8.593 27.063s12.715 11.589 20.962 14.375c8.241 2.783 16.542 4.176 24.893 4.176 7.922 0 16.035-1.393 24.334-4.176s15.419-7.576 21.36-14.375 8.914-15.821 8.914-27.063c0-10.387-2.971-19.007-8.914-25.858s-13.143-11.833-21.603-14.937-16.488-4.658-24.091-4.658c-8.029 0-16.221 1.553-24.574 4.658m526.47 248.919c-69.476-10.341-105.578-51.314-131.89-75.985-24.907-23.355-34.734-28.353-42.01-31.31-.248-.101-.119-.468.141-.401 53.835 13.688 79.764-22.384 86.867-33.998.185-.303.349-.297.397.057 9.36 69.667 92.04 124.259 92.871 124.799l34.012 22.1a.39.39 0 0 1-.269.71zm-62.21-375.425c-.437.345-24.933 20.006-46.342 53.18-.582.901-1.802 1.105-2.647.444-7.64-5.989-16.371-11.269-26.019-15.524-6.68-2.947-13.426-5.225-20.122-6.885-1.384-.343-1.827-2.071-.807-3.067 35.948-35.085 85.045-45.748 87.487-46.26l40.246-8.426c.63-.131 1.007.676.502 1.074z"/><path d="M1070.93 649.159c-.134.068-.287.083-.431.039-10.661-3.193-22.353-4.959-34.618-4.959-7.416 0-14.623.647-21.519 1.863-.66.117-.963-.781-.372-1.097 25.254-13.542 53.378-19.054 54.873-19.34l41.338-7.883a.59.59 0 0 1 .535.985l-18.697 19.533c-.045.048-.098.087-.156.117zm-375.774 8.819c-.026.212-.195.38-.409.388-3.119.106-18.326-.792-24.523-.792-14.274 0-27.772 2.39-39.772 6.643-.36.128-.7-.229-.548-.579 4.08-9.383 9.433-19.349 16.128-27.224 18.203-21.419 38.134-25.543 40.347-25.943l25.21-4.478a.44.44 0 0 1 .477.608l-10.39 23.461c-.046.102-4.309 9.915-6.52 27.916m-7.997 245.057c111.757 0 216.776-1.937 302.845-16.275.765-.128 1 .985.253 1.193-52.55 14.643-36.996 23.032-38.152 26.79 3.414 10.494 33.772 29.439 64.92 43.808l-21.82 1.997c-.917.084-.923 1.421-.007 1.514l39.054 3.944 55.791 22.931c.56.23.392 1.065-.214 1.06l-63.437-.527c-1.237-.01-30.766-.416-70.195-14.764-14.259-5.188-97.194-51.544-114.061-51.349-.093.001-35.378 10.122-48.833 19.581-40.956 28.793-57.11 77.465-60.046 86.463l-11.608-8.45c-.789-.574-1.775.398-1.212 1.196l10.636 15.043c-.457 1.946-5.686 36.134-5.686 36.134h0a607.04 607.04 0 0 1-33.994-53.137l-43.517-76.514a16.04 16.04 0 0 0-13.07-8.094c-23.721-1.284-72.307-5.527-127.51-19.518-22.375-5.671-51.049-16.255-81.13-29.762-.33-.148-.176-.644.178-.57 78.284 16.359 166.134 17.306 260.815 17.306"/></g></g></svg>